<svg xmlns="http://www.w3.org/2000/svg" xmlns:xlink="http://www.w3.org/1999/xlink" version="1.1" width="256" height="256" viewBox="0 0 256 256" xml:space="preserve">

<defs>
</defs>
<g style="stroke: none; stroke-width: 0; stroke-dasharray: none; stroke-linecap: butt; stroke-linejoin: miter; stroke-miterlimit: 10; fill: none; fill-rule: nonzero; opacity: 1;" transform="translate(1.4065934065934016 1.4065934065934016) scale(2.81 2.81)" >
	<polygon points="21.55,45 39,54.93 39,35.07 " style="stroke: none; stroke-width: 1; stroke-dasharray: none; stroke-linecap: butt; stroke-linejoin: miter; stroke-miterlimit: 10; fill: rgb(255,255,255); fill-rule: nonzero; opacity: 1;" transform="  matrix(1 0 0 1 0 0) "/>
	<polygon points="62.5,54.93 62.5,35.07 45.05,45 " style="stroke: none; stroke-width: 1; stroke-dasharray: none; stroke-linecap: butt; stroke-linejoin: miter; stroke-miterlimit: 10; fill: rgb(255,255,255); fill-rule: nonzero; opacity: 1;" transform="  matrix(1 0 0 1 0 0) "/>
	<!-- <path d="M 45 0 C 20.147 0 0 20.147 0 45 c 0 24.853 20.147 45 45 45 s 45 -20.147 45 -45 C 90 20.147 69.853 0 45 0 z M 66.5 58.366 c 0 0.712 -0.379 1.371 -0.994 1.729 c -0.311 0.181 -0.658 0.271 -1.006 0.271 c -0.341 0 -0.682 -0.087 -0.989 -0.262 L 43 48.438 v 9.928 c 0 0.712 -0.379 1.371 -0.995 1.729 c -0.311 0.181 -0.658 0.271 -1.005 0.271 c -0.341 0 -0.682 -0.087 -0.989 -0.262 l -23.5 -13.366 C 15.886 46.383 15.5 45.719 15.5 45 s 0.386 -1.383 1.011 -1.738 l 23.5 -13.366 c 0.62 -0.353 1.379 -0.348 1.994 0.009 C 42.621 30.263 43 30.921 43 31.634 v 9.928 l 20.511 -11.666 c 0.62 -0.353 1.381 -0.348 1.995 0.009 c 0.615 0.358 0.994 1.017 0.994 1.729 V 58.366 z" style="stroke: none; stroke-width: 1; stroke-dasharray: none; stroke-linecap: butt; stroke-linejoin: miter; stroke-miterlimit: 10; fill: rgb(0,0,0); fill-rule: nonzero; opacity: 1;" transform=" matrix(1 0 0 1 0 0) " stroke-linecap="round" /> -->
</g>
</svg>